<svg version="1.2" xmlns="http://www.w3.org/2000/svg" viewBox="0 0 4026 1034" width="4026" height="1034">
	<style>
		.s0 { fill: none;stroke:#ff9367;stroke-miterlimit:10;stroke-width: 24.8 } 
	</style>
	<path id="&lt;Path&gt;" class="s0" d="m4023.92 754.14l-611.17 1.69-142.19 0.39-73.74 0.2q-0.11 0-0.17-0.09-74.86-111.76-149.72-223.52c-0.08-0.13-0.27-0.12-0.35 0.02q-71.74 134.96-143.49 269.92c-0.09 0.17-0.34 0.13-0.38-0.05q-84.02-399.5-168.04-798.99c-0.04-0.22-0.36-0.21-0.39 0.01q-79.59 463.09-159.17 926.19c-0.03 0.2-0.31 0.23-0.39 0.04q-89.78-231.15-179.56-462.31c-0.07-0.17-0.31-0.17-0.38 0.01q-67.86 179.11-135.73 358.22c-0.06 0.15-0.27 0.18-0.36 0.04q-22-33.24-43.99-66.48-0.06-0.09-0.17-0.09-1085.04 3.74-2170.07 7.48"/>
</svg>