<svg version="1.2" xmlns="http://www.w3.org/2000/svg" viewBox="0 0 4461 1361" >
	<style>
		.s0 { fill: none;stroke: #fff;stroke-miterlimit:10;stroke-width: 24.8 } 
	</style>
	<path id="&lt;Path&gt;" class="s0" d="m4220.24 971.6h-611.17-142.19-73.74q-0.1 0-0.17-0.09-74.55-111.96-149.1-223.93c-0.08-0.13-0.27-0.12-0.35 0.02q-72.12 134.76-144.24 269.52c-0.09 0.17-0.34 0.13-0.38-0.05q-82.91-399.73-165.83-799.45c-0.04-0.22-0.36-0.21-0.4 0.01q-80.86 462.87-161.71 925.74c-0.04 0.21-0.32 0.23-0.39 0.04q-89.15-231.4-178.29-462.79c-0.07-0.18-0.31-0.18-0.38 0q-68.36 178.92-136.71 357.84c-0.06 0.16-0.27 0.18-0.36 0.04q-21.91-33.3-43.82-66.6-0.06-0.09-0.17-0.09-1085.04 0.75-2170.08 1.5"/>
</svg>