<svg version="1.2" xmlns="http://www.w3.org/2000/svg" viewBox="0 0 4026 1034" width="4026" height="1034">
	<style>
		.s0 { fill: none;stroke:#ff9367;stroke-miterlimit:10;stroke-width: 24.8 } 
	</style>
	<path id="&lt;Path&gt;" class="s0" d="m44.46 754.14l611.16 1.69 142.19 0.39 73.74 0.2q0.11 0 0.17-0.09 74.86-111.76 149.72-223.52c0.08-0.13 0.27-0.12 0.35 0.02q71.75 134.96 143.49 269.92c0.09 0.17 0.34 0.13 0.38-0.05q84.02-399.5 168.04-798.99c0.04-0.22 0.36-0.21 0.4 0.01q79.58 463.09 159.16 926.19c0.04 0.2 0.32 0.23 0.39 0.04q89.78-231.15 179.56-462.31c0.07-0.17 0.31-0.17 0.38 0.01q67.86 179.11 135.73 358.22c0.06 0.15 0.27 0.18 0.36 0.04q22-33.24 43.99-66.48 0.07-0.09 0.17-0.09 1085.04 3.74 2170.08 7.48"/>
</svg>