<?xml version="1.0" encoding="UTF-8"?>
<svg id="Layer_1" data-name="Layer 1" xmlns="http://www.w3.org/2000/svg" viewBox="0 0 736.33 168.94">
  <path d="m348.94,7.5c-4.3,6.9-4.6,7.8-3.6,10.7.7,2.1,1.1,19.6,1.1,52.9v49.9h21.1l-.3-53.8-.3-53.7-2.4-4.8c-2.2-4.5-6.9-8.7-9.7-8.7-.7,0-3.3,3.4-5.9,7.5Z" style="fill: #fff; fill-rule: evenodd;"/>
  <path d="m28.04,40C12.84,44.9,2.84,57.5.44,75.2c-2.8,20.1,8.1,40.3,24.9,46.3l3.9,1.3,6.6-8.1,6.6-8.2-3.5-.7c-7.4-1.6-13.1-6.3-15.9-13-3.1-7.2-5-6.8,29-6.8h30.6l-.7-7.5c-2-21.9-9.8-33.7-25.6-38.6-8-2.5-20.4-2.4-28.3.1Zm20.5,15.5c2.4.9,5.7,2.8,7.3,4.3,2.7,2.5,5.6,7.8,5.6,10.2,0,.6-6.9,1-20,1-11,0-20-.2-20-.4,0-3.9,7.1-12.3,12.5-14.7,4.9-2.3,8.9-2.4,14.6-.4Z" style="fill: #fff; fill-rule: evenodd;"/>
  <path d="m191.94,39.5c-17.9,4.6-29.5,20.6-29.5,40.9,0,18.2,8.4,32.7,22.8,39.4,5.1,2.4,6.8,2.7,17.2,2.7s12.1-.3,17.2-2.7c6.8-3.2,13.3-9.4,17.1-16.4l2.7-5.2-8.2-4.2c-7.5-4-8.3-4.2-9.3-2.5-6.2,10.4-11.6,13.9-20.6,13.3-11-.8-17.9-9.7-17.9-23.2,0-9.3,1.7-14.2,6.5-19.2,6.1-6.3,13.6-7.9,21.1-4.5,4,1.8,9.4,7.6,9.4,9.9,0,.7.3,1.2.6,1.2.7,0,16.6-7,17.3-7.6.8-.7-6.3-11.6-9.6-14.5-8.8-7.7-23.7-10.7-36.8-7.4Z" style="fill: #fff; fill-rule: evenodd;"/>
  <path d="m281.94,39.4c-15.2,3.8-24.4,12.4-29.4,27.4-4.1,12-2.3,28.4,4.3,39.5,3.4,5.9,11.6,13.1,17.3,15.3l4.6,1.8,4-4.5c2.1-2.4,5.2-6,6.8-8l2.9-3.7-4.3-1c-8.5-2.2-16.7-11-16.7-18v-2.2h61v-3.3c-.1-6-2-16.5-4-22.1-6.3-16.7-26.9-26.1-46.5-21.2Zm18.2,17.1c2.1.9,4.6,2.3,5.6,3.3,2,1.8,5.7,8.4,5.7,10.2,0,.6-6.8,1-20,1h-20l1.1-2.7c4.1-10.8,16.9-16.2,27.6-11.8Z" style="fill: #fff; fill-rule: evenodd;"/>
  <path d="m600.64,39.4c-10.3,2.6-18.1,10.3-22.2,21.8-2.2,5.8-2.4,8.3-2.8,34l-.4,27.8h21.1l.3-27.3c.3-24.1.5-27.6,2.2-30.9,2.5-5.2,7.1-7.8,13.7-7.8s11.7,2.5,14.4,7.1c1.8,3.1,2,5.5,2.3,31.1l.3,27.8h19.9v-25.3c0-27.7-1-35.7-5.5-43.2-3.3-5.8-10.6-12-16.3-14-6.3-2.2-20.3-2.8-27-1.1Z" style="fill: #dc143c; fill-rule: evenodd;"/>
  <path d="m418.74,39.9c-20.5,5.3-34.8,26.7-31.3,47,3.6,20.7,20.2,35.1,40.5,35.2,8.2.1,14.3-1.3,20.3-4.6l4.2-2.4v9c0,10.4-1.6,14.6-7.6,19.9-5.6,4.9-11,7-18.2,7-6.2,0-10.7-1.5-14.4-4.7-1.4-1.3-2.2-.7-7.3,5.6-3.1,3.9-5.4,7.4-5.1,7.9.9,1.6,11.1,6.1,17.1,7.7,8.1,2.1,15,1.9,23.1-.6,15.5-4.7,24.2-13.4,28.8-28.8,2.2-7.4,2.3-59.8.2-67.7-3.3-12.3-11.6-22.2-23.4-27.7-5.6-2.6-8-3.1-15.2-3.4-4.7-.1-9.9.2-11.7.6Zm20.7,17.7c7.2,3.1,12.7,10.7,13.7,19.2,1.6,14.2-9.2,26.2-23.7,26.2-10.2,0-17.5-4.6-21.6-13.5-6.5-13.8,1.2-29.8,16.1-33.6,3.8-1,10.9-.2,15.5,1.7Z" style="fill: #dc143c; fill-rule: evenodd;"/>
  <path d="m510.94,40.7c-14.7,5.3-23,14.4-27,30-4.9,18.7,3.2,39.7,18.7,48.6q7.7,4.5,14.6-3.8c3.4-4.1,6.2-7.6,6.2-7.9,0-.2-1.5-.7-3.3-1-7.9-1.5-15.4-9.1-16.4-16.5l-.6-4.1h30.7c29.6,0,30.6-.1,30.6-1.9,0-5.1-2.4-18-4.1-22.8-2.9-7.5-10.3-15.3-18.1-18.8-8.2-3.8-23.3-4.6-31.3-1.8Zm24.8,17.3c3.7,2.5,7.7,8.5,7.7,11.4,0,1.4-2.3,1.6-20,1.6-11,0-20-.2-20-.5,0-1.6,4.2-8.4,6.7-10.7,4.1-3.9,7-4.8,14.9-4.5,5.6.2,7.8.7,10.7,2.7Z" style="fill: #dc143c; fill-rule: evenodd;"/>
  <path d="m685.84,40.1c-6,1.4-14.4,6.8-17.7,11.5-3.1,4.4-4.5,12.4-3.3,18.9.9,4.9,7.3,11.7,13.4,14.3,2.6,1.1,10.1,3.1,16.7,4.5,6.6,1.3,13.7,3.2,15.7,4,6.6,2.8,5.9,9.4-1.5,13.4-4.9,2.7-17.7,2.4-24.2-.6-2.7-1.2-6.1-3.3-7.6-4.7l-2.5-2.4-6.7,5.1c-3.7,2.9-6.7,5.5-6.7,6,0,2.8,14.1,10.8,23,13,7.8,1.9,23.2,1.7,30.1-.4,13-3.9,21-12.8,21.7-24.2.5-8.1-1-12.5-5.7-16.8-5-4.5-12-7-26.5-9.6-11.3-2.1-17.3-4.1-18.8-6.5-3-4.5,2.2-10,10.4-11,9.8-1.2,19.5,2.4,23.7,8.8l1.6,2.5,6.6-6.4,6.6-6.4-3.1-2.9c-8.8-8.2-17.4-11.2-31.3-11.1-5.4.1-11.6.5-13.9,1Z" style="fill: #dc143c; fill-rule: evenodd;"/>
  <path d="m94.84,46.2c-2.7,3.4-5.4,6.9-6.1,7.9-1,1.4.3,3.5,8.8,14.4,5.5,7,9.8,13.4,9.5,14.1s-7.4,9.7-15.8,19.9-15.5,19-15.6,19.6c-.3.6,4.4.9,12.4.7l12.8-.3,9.6-11.7c5.2-6.4,9.8-11.9,10.1-12.3.4-.3,5,4.9,10.4,11.7,5.3,6.8,9.8,12.3,9.9,12.3,1.2,0,13.3-16.2,12.7-17-.5-.5-5-6.1-10.1-12.3l-9.2-11.2,15.9-19.8c8.7-10.8,16.2-20.3,16.7-21,.6-.9-2.1-1.2-12.3-1.2h-13l-10.1,13c-5.6,7.1-10.3,13-10.4,13-.2,0-4.8-5.9-10.2-13-5.5-7.2-10.2-13-10.5-13s-2.8,2.8-5.5,6.2Z" style="fill: #fff; fill-rule: evenodd;"/>
</svg>